<?xml version="1.0" standalone="no"?>
<!DOCTYPE svg PUBLIC "-//W3C//DTD SVG 20010904//EN"
 "http://www.w3.org/TR/2001/REC-SVG-20010904/DTD/svg10.dtd">
<svg version="1.0" xmlns="http://www.w3.org/2000/svg"
 width="200.000000pt" height="200.000000pt" viewBox="0 0 200.000000 200.000000"
 preserveAspectRatio="xMidYMid meet">

<g transform="translate(0.000000,200.000000) scale(0.100000,-0.100000)"
fill="#000000" stroke="none">
<path d="M903 1989 c-223 -21 -425 -114 -591 -273 -409 -392 -408 -1040 0
-1432 190 -183 422 -276 688 -276 266 0 498 93 688 276 409 392 409 1040 0
1432 -211 203 -492 300 -785 273z m95 -128 l25 -64 31 61 c21 42 36 62 48 62
17 0 18 -9 16 -107 -3 -93 -5 -108 -20 -111 -16 -3 -18 5 -18 59 l0 63 -22
-44 c-13 -25 -29 -45 -37 -45 -7 0 -22 20 -32 45 l-18 45 0 -57 c-1 -51 -3
-58 -21 -58 -19 0 -20 7 -20 103 0 57 3 107 7 111 17 17 37 -4 61 -63z m-164
-51 c10 -47 20 -93 23 -103 4 -15 0 -18 -18 -15 -21 3 -25 13 -43 101 -17 85
-18 99 -6 107 21 13 25 5 44 -90z m446 72 c0 -7 -45 -169 -55 -200 -4 -9 -10
-10 -24 -3 -18 10 -18 14 12 111 24 79 34 100 49 100 10 0 18 -4 18 -8z m165
-66 c72 -40 83 -80 14 -52 -13 6 -25 -10 -55 -68 -37 -72 -55 -89 -69 -66 -4
6 12 44 34 85 l41 74 -22 12 c-30 16 -29 14 -22 33 8 21 10 21 79 -18z m-826
-66 c19 -44 38 -80 43 -80 5 0 26 9 48 20 38 20 40 20 49 1 9 -16 3 -22 -50
-45 -33 -14 -64 -26 -68 -26 -4 0 -27 43 -51 96 -36 79 -41 97 -29 105 8 5 16
9 19 9 3 0 20 -36 39 -80z m-119 -86 c74 -87 77 -92 56 -100 -13 -5 -49 3
-150 33 -14 4 -5 -11 27 -48 37 -43 44 -56 34 -67 -12 -15 -16 -12 -118 109
-32 38 -36 49 -25 58 9 8 22 8 38 2 46 -17 128 -40 128 -35 0 2 -19 25 -41 49
-25 28 -39 51 -35 60 3 8 9 15 13 15 5 0 38 -34 73 -76z m1155 1 c40 -35 47
-46 38 -56 -10 -10 -21 -6 -52 19 -47 38 -47 38 -61 12 -9 -17 -6 -24 20 -46
24 -21 28 -29 19 -40 -9 -11 -17 -9 -46 13 -32 24 -35 25 -51 10 -15 -16 -14
-20 21 -55 31 -32 35 -41 24 -50 -10 -9 -24 -1 -62 38 l-49 50 29 32 c66 73
109 118 115 118 3 -1 28 -21 55 -45z m-520 -20 c85 -18 212 -79 280 -135 230
-191 307 -508 188 -773 -15 -34 -27 -67 -25 -74 2 -7 -3 -13 -11 -13 -20 0
-37 -42 -26 -63 5 -9 22 -25 37 -36 l28 -19 -1 51 c0 46 2 52 22 55 16 2 28
-6 43 -30 26 -42 25 -69 -1 -92 -20 -17 -23 -17 -60 -1 -20 10 -50 30 -65 46
l-27 28 -49 -49 c-124 -126 -296 -200 -468 -200 -202 0 -410 106 -528 269 -16
22 -32 38 -35 35 -3 -3 -14 -1 -24 4 -15 8 -22 6 -31 -9 -11 -18 -72 -49 -95
-49 -19 0 12 24 43 35 43 14 40 28 -11 46 -31 12 -49 14 -63 7 -14 -8 -17 -7
-14 4 2 7 35 28 72 47 58 29 67 37 61 55 -54 186 -44 344 34 501 70 140 166
236 306 306 133 66 275 84 420 54z m-831 -159 c74 -47 93 -76 76 -117 -16 -37
-53 -63 -80 -56 -35 9 -150 81 -150 94 0 24 22 24 58 0 73 -47 102 -59 118
-46 32 26 17 56 -48 95 -35 21 -65 39 -67 40 -2 2 -1 11 3 20 7 19 19 16 90
-30z m1512 -20 c27 -52 27 -54 10 -80 -31 -49 -105 -84 -151 -72 -22 6 -84 90
-74 100 9 9 175 106 180 106 4 0 19 -24 35 -54z m-88 -735 c39 -36 41 -57 7
-73 -45 -20 -100 39 -81 88 9 23 39 16 74 -15z m-1288 -162 c12 -21 2 -43 -27
-62 -7 -4 -13 -15 -13 -23 0 -9 -6 -14 -12 -11 -7 2 -21 -2 -31 -11 -9 -8 -20
-12 -24 -8 -4 4 3 15 15 25 l23 17 -20 19 c-12 10 -21 23 -21 28 0 6 13 -1 28
-16 l28 -27 24 25 c23 24 23 25 5 45 -16 18 -16 20 -2 20 9 0 21 -9 27 -21z
m61 -75 c10 -12 10 -20 2 -33 -10 -16 -7 -18 24 -17 20 1 38 -4 40 -11 5 -13
-54 -83 -69 -83 -6 0 4 16 21 35 17 20 31 38 31 41 0 6 -68 -3 -102 -12 -28
-8 -21 9 12 28 28 16 42 48 20 48 -5 0 -10 5 -10 10 0 15 16 12 31 -6z m1056
-29 c29 -52 29 -73 -2 -87 -23 -10 -29 -8 -65 32 -40 44 -47 69 -10 35 20 -18
20 -18 20 24 0 35 3 42 17 39 10 -2 28 -21 40 -43z m-127 -95 c22 -44 24 -50
12 -50 -5 0 -16 15 -25 33 l-16 32 0 -47 c-1 -26 -5 -50 -11 -53 -5 -3 -23 9
-40 27 -29 32 -30 33 -36 11 -6 -23 -24 -32 -24 -12 0 18 20 49 32 49 7 0 22
-12 35 -27 l22 -28 1 37 c0 77 20 88 50 28z m-790 19 c0 -6 -5 -19 -10 -29
-10 -18 -9 -18 24 -5 56 23 63 -5 15 -60 -35 -39 -58 -44 -83 -16 -17 19 -17
21 8 58 14 21 26 43 26 50 0 7 5 13 10 13 6 0 10 -5 10 -11z m160 -64 c17 -21
5 -59 -28 -90 -27 -25 -52 -29 -59 -10 -6 18 20 44 47 48 17 3 26 11 28 27 3
21 1 22 -28 16 -28 -5 -31 -4 -20 9 16 19 44 19 60 0z m460 -25 c18 -69 20
-80 10 -80 -5 0 -15 20 -21 45 -11 42 -13 45 -29 30 -25 -23 -32 -18 -14 10
20 31 45 29 54 -5z m-324 -21 c8 -14 -16 -159 -27 -159 -12 0 -11 27 1 70 l10
35 -25 -28 c-31 -33 -41 -34 -49 -4 -11 42 -6 68 19 93 20 20 29 23 44 14 11
-5 23 -15 27 -21z m219 14 c20 -19 15 -78 -8 -101 -12 -11 -17 -11 -31 3 -9 9
-16 21 -16 26 0 13 18 11 23 -3 8 -18 27 10 27 39 0 35 -21 39 -46 10 -25 -29
-34 -33 -34 -17 0 14 46 60 59 60 5 0 17 -8 26 -17z m133 -108 c-6 -14 -15
-25 -20 -25 -11 0 -10 7 2 31 16 28 32 23 18 -6z"/>
<path d="M860 1624 c-300 -64 -515 -350 -497 -659 7 -115 30 -192 61 -207 28
-12 49 -53 41 -79 -16 -49 121 -186 247 -249 484 -238 1023 178 913 705 -72
342 -418 564 -765 489z m77 -91 c23 -71 60 -131 121 -198 86 -93 109 -139 126
-242 l12 -78 7 54 c9 76 50 138 115 177 51 31 179 70 190 59 3 -3 -7 -18 -22
-34 -31 -32 -45 -82 -46 -154 0 -26 -7 -64 -15 -85 -20 -47 -78 -108 -128
-133 -66 -35 -112 -85 -147 -161 -35 -77 -107 -188 -121 -188 -14 0 -10 26 5
39 7 6 28 44 47 83 29 63 34 84 34 148 0 96 -25 149 -141 300 -152 197 -167
271 -81 397 25 37 35 41 44 16z m-106 -80 c-16 -57 -13 -133 8 -179 10 -22 62
-98 116 -169 129 -169 150 -211 150 -295 0 -54 -6 -77 -32 -130 -30 -60 -131
-195 -139 -187 -2 2 11 33 28 68 30 58 33 72 33 154 0 108 -9 129 -128 284
-107 141 -131 194 -131 291 -1 54 4 85 18 110 19 37 77 103 84 96 2 -2 -1 -21
-7 -43z m-114 -150 c0 -99 28 -171 109 -283 117 -160 134 -186 150 -234 28
-83 0 -209 -64 -286 -27 -33 -34 -23 -17 25 27 76 14 188 -28 233 -24 25 -51
27 -144 10 -59 -11 -65 -10 -84 8 -17 17 -18 25 -9 48 8 21 7 32 -1 42 -7 8
-9 17 -6 21 4 3 -1 12 -11 19 -14 11 -15 16 -4 34 11 18 9 23 -13 43 l-26 22
35 47 c28 36 32 47 21 52 -23 9 -18 26 8 23 21 -2 22 0 18 71 -3 63 1 80 24
127 14 30 30 55 34 55 4 0 7 -35 8 -77z"/>
<path d="M980 1235 c8 -11 44 -54 80 -95 36 -42 73 -87 83 -100 l18 -25 -12
25 c-7 14 -23 39 -37 55 -37 45 -149 163 -132 140z"/>
<path d="M1261 1080 c-15 -21 -34 -53 -41 -70 -12 -29 -30 -41 -30 -19 0 5 -4
8 -9 5 -5 -4 -12 0 -15 6 -3 7 -3 2 1 -12 3 -14 10 -41 14 -60 3 -19 7 -28 8
-20 2 23 60 141 87 178 14 17 23 32 20 32 -3 0 -19 -18 -35 -40z"/>
<path d="M335 721 l-40 -18 40 -17 c35 -15 95 -28 95 -19 0 13 -36 73 -44 73
-6 0 -29 -9 -51 -19z"/>
<path d="M421 735 c0 -18 28 -61 29 -44 0 8 -7 24 -15 35 -8 10 -14 15 -14 9z"/>
<path d="M1620 597 c0 -52 16 -82 36 -66 21 17 17 44 -11 76 l-24 28 -1 -38z"/>
<path d="M1708 1434 c-51 -31 -57 -38 -47 -55 6 -11 17 -23 25 -26 18 -7 65
12 92 38 18 16 19 23 11 49 -6 16 -14 30 -17 30 -4 0 -33 -17 -64 -36z"/>
<path d="M1670 720 c0 -23 6 -33 25 -42 53 -24 47 34 -6 62 -17 10 -19 7 -19
-20z"/>
<path d="M1521 448 c-1 -48 12 -69 32 -49 8 8 5 22 -10 53 l-22 43 0 -47z"/>
<path d="M624 322 c-32 -18 -35 -42 -5 -42 17 0 39 19 55 48 10 17 -13 15 -50
-6z"/>
<path d="M735 240 c-3 -5 -2 -10 4 -10 5 0 13 5 16 10 3 6 2 10 -4 10 -5 0
-13 -4 -16 -10z"/>
<path d="M876 275 c-9 -9 -16 -32 -16 -52 0 -31 2 -34 16 -22 8 7 22 25 29 40
12 23 12 29 1 38 -11 9 -18 8 -30 -4z"/>
</g>
</svg>
